<svg width="25" height="25" viewBox="0 0 25 25" fill="none" xmlns="http://www.w3.org/2000/svg">
<path d="M21.4844 2.73438H3.51562C3.0835 2.73438 2.73438 3.0835 2.73438 3.51562V21.4844C2.73438 21.9165 3.0835 22.2656 3.51562 22.2656H21.4844C21.9165 22.2656 22.2656 21.9165 22.2656 21.4844V3.51562C22.2656 3.0835 21.9165 2.73438 21.4844 2.73438ZM19.2285 8.43506H17.6685C16.4453 8.43506 16.2085 9.01611 16.2085 9.87061V11.7529H19.1284L18.7476 14.6997H16.2085V22.2656H13.1641V14.7021H10.6177V11.7529H13.1641V9.58008C13.1641 7.05811 14.7046 5.68359 16.9556 5.68359C18.0347 5.68359 18.96 5.76416 19.231 5.80078V8.43506H19.2285Z" fill="#FA4A0C"/>
</svg>
