<svg width="25" height="25" viewBox="0 0 25 25" fill="none" xmlns="http://www.w3.org/2000/svg">
<path d="M24.6281 5.1427C23.7583 5.52812 22.824 5.78854 21.8417 5.90624C22.8552 5.29978 23.6135 4.34527 23.975 3.22083C23.0228 3.78644 21.9806 4.18457 20.8938 4.39791C20.1629 3.61756 19.1949 3.10033 18.1399 2.92653C17.085 2.75272 16.0022 2.93207 15.0596 3.43672C14.1171 3.94136 13.3675 4.74308 12.9272 5.71739C12.487 6.69171 12.3808 7.78411 12.625 8.82499C10.6955 8.72811 8.80795 8.22661 7.08482 7.35302C5.36169 6.47943 3.8415 5.25329 2.62292 3.75416C2.20625 4.47291 1.96667 5.30624 1.96667 6.19374C1.9662 6.9927 2.16295 7.77941 2.53946 8.48409C2.91596 9.18877 3.46059 9.78962 4.125 10.2333C3.35446 10.2088 2.60091 10.0006 1.92709 9.62604V9.68853C1.92701 10.8091 2.31462 11.8952 3.02415 12.7625C3.73368 13.6298 4.72143 14.2249 5.81979 14.4469C5.10498 14.6403 4.35556 14.6688 3.62813 14.5302C3.93802 15.4944 4.54166 16.3375 5.35455 16.9416C6.16744 17.5456 7.14887 17.8804 8.16146 17.899C6.44254 19.2483 4.31968 19.9803 2.13438 19.9771C1.74727 19.9772 1.3605 19.9546 0.976044 19.9094C3.19425 21.3356 5.7764 22.0925 8.41354 22.0896C17.3406 22.0896 22.2208 14.6958 22.2208 8.28333C22.2208 8.07499 22.2156 7.86458 22.2063 7.65624C23.1555 6.96976 23.9749 6.11968 24.626 5.14583L24.6281 5.1427V5.1427Z" fill="#FA4A0C"/>
</svg>
